<?xml version="1.0" standalone="no"?>
<!DOCTYPE svg PUBLIC "-//W3C//DTD SVG 1.1//EN" "http://www.w3.org/Graphics/SVG/1.1/DTD/svg11.dtd" >
<svg xmlns="http://www.w3.org/2000/svg">
<metadata>
Created by FontForge 20120731 at Fri Mar 17 11:09:45 2017
 By admin
</metadata>
<defs>
<font id="iconfont" horiz-adv-x="1024" >
  <font-face 
    font-family="iconfont"
    font-weight="500"
    font-stretch="normal"
    units-per-em="1024"
    panose-1="2 0 6 3 0 0 0 0 0 0"
    ascent="896"
    descent="-128"
    x-height="792"
    bbox="0 -212 2074 896"
    underline-thickness="0"
    underline-position="0"
    unicode-range="U+0078-E95D"
  />
<missing-glyph 
 />
    <glyph glyph-name=".notdef" 
 />
    <glyph glyph-name=".notdef" 
 />
    <glyph glyph-name=".null" horiz-adv-x="0" 
 />
    <glyph glyph-name="nonmarkingreturn" horiz-adv-x="341" 
 />
    <glyph glyph-name="x" unicode="x" horiz-adv-x="1001" 
d="M281 543q-27 -1 -53 -1h-83q-18 0 -36.5 -6t-32.5 -18.5t-23 -32t-9 -45.5v-76h912v41q0 16 -0.5 30t-0.5 18q0 13 -5 29t-17 29.5t-31.5 22.5t-49.5 9h-133v-97h-438v97zM955 310v-52q0 -23 0.5 -52t0.5 -58t-10.5 -47.5t-26 -30t-33 -16t-31.5 -4.5q-14 -1 -29.5 -0.5
t-29.5 0.5h-32l-45 128h-439l-44 -128h-29h-34q-20 0 -45 1q-25 0 -41 9.5t-25.5 23t-13.5 29.5t-4 30v167h911zM163 247q-12 0 -21 -8.5t-9 -21.5t9 -21.5t21 -8.5q13 0 22 8.5t9 21.5t-9 21.5t-22 8.5zM316 123q-8 -26 -14 -48q-5 -19 -10.5 -37t-7.5 -25t-3 -15t1 -14.5
t9.5 -10.5t21.5 -4h37h67h81h80h64h36q23 0 34 12t2 38q-5 13 -9.5 30.5t-9.5 34.5q-5 19 -11 39h-368zM336 498v228q0 11 2.5 23t10 21.5t20.5 15.5t34 6h188q31 0 51.5 -14.5t20.5 -52.5v-227h-327z" />
    <glyph glyph-name="shezhi" unicode="&#xe615;" horiz-adv-x="1000" 
d="M607 -122h-186v9q0 64 -44.5 109.5t-107.5 45.5q-42 0 -77 -21l-8 -5l-92 162l7 5q55 32 71.5 94t-14.5 117q-21 36 -57 57l-7 5l92 162l8 -5q36 -21 77 -21q40 0 75 20q37 21 57 57q21 37 21 78v9h185v-8q0 -65 45 -110.5t108 -45.5q41 0 77 21l7 4l93 -162l-8 -4
q-55 -32 -71.5 -94.5t15.5 -117.5q20 -36 56 -57l7 -4l-92 -162l-8 4q-36 21 -77 21q-40 0 -75 -20q-36 -21 -57 -57t-20 -77v-9zM439 -104h150q2 41 22 77q24 41 64 64q39 22 84 22q41 0 78 -19l75 131q-34 23 -55 59q-34 60 -17.5 127t73.5 105l-75 131q-37 -19 -78 -19
q-68 0 -117.5 48t-53.5 117h-149q-2 -42 -23 -79q-23 -40 -64 -63q-39 -23 -84 -23q-41 0 -78 19l-75 -131q35 -23 55 -59q36 -62 17 -131q-17 -64 -72 -100l75 -131q36 18 78 18q70 0 120 -50q46 -47 50 -113zM514 134q-75 0 -128 53.5t-53 129.5t53 129.5t128 53.5
t128.5 -53.5t53.5 -129.5t-53.5 -129.5t-128.5 -53.5zM514.5 482q-67.5 0 -115.5 -48.5t-48 -116.5t48 -116.5t115.5 -48.5t115.5 48.5t48 116.5t-48 116.5t-115.5 48.5z" />
    <glyph glyph-name="icon07" unicode="&#xe612;" 
d="M370 -71q-10 0 -17 6q-8 7 -9 17.5t6 18.5l271 322l-258 309q-7 9 -6 19.5t9 17t18.5 5.5t17.5 -9l272 -325q14 -17 0 -33l-285 -339q-7 -9 -19 -9z" />
    <glyph glyph-name="shezhi3" unicode="&#xe661;" 
d="M575.5 410q-45.5 26 -97 12.5t-78 -58.5t-12.5 -95.5t60 -77t97 -13t77.5 59t12.5 96t-59.5 76.5zM594.5 253.5q-19.5 -33.5 -58 -44t-72.5 9.5t-44.5 57.5t9.5 71.5t58 44t72.5 -9.5t44.5 -57.5t-9.5 -71.5zM888 374v0l-6 27l-2 7q-52 15 -78 59q-12 21 -15.5 48t2.5 48
l-14 12q-5 6 -11 10l-1 1v0q-57 49 -127 73v0h-1l-26 8v0h-1v0v0v0l-6 1q-39 -36 -90 -36q-25 0 -50.5 10t-40.5 27l-6 -2l-28 -8v-1v0q-71 -24 -128 -72v0v-1l-14 -12l-6 -6l-5 -5q13 -52 -13 -96q-12 -20 -34 -37t-44 -22l-2 -8q-3 -13 -6 -25v-1v0q-7 -36 -7 -72
q0 -37 7 -74v0v0q3 -14 7 -27v0l2 -6q52 -15 77 -59q12 -21 16 -48t-3 -48l7 -6q63 -62 147 -90v0v0q12 -4 23 -7l3 -1l7 -2q39 37 91 37q24 0 49.5 -10.5t41.5 -26.5l6 2q101 26 174 99l1 1l5 4q-12 53 13 96q12 21 34 38t44 22l1 5v0q14 49 14 101q0 37 -7 73zM853 218
q-52 -21 -79 -67t-19 -100q-62 -60 -145 -83q-45 33 -98 33q-54 0 -98 -34q-83 24 -146 83q7 55 -19 101q-27 46 -79 66q-10 41 -10 84q0 42 10 83q52 21 79 67t19 100q63 59 146 83q44 -34 98 -34q53 0 97 34q83 -24 146 -83q-7 -54 20 -100t78 -66q10 -42 10 -84t-10 -83z
" />
    <glyph glyph-name="iconquan" unicode="&#xe655;" 
d="M509.5 -105q109.5 0 202.5 54t147 147t54 202.5t-54 202.5t-147 147t-202.5 54t-202.5 -54t-147 -147t-54 -202.5t54 -202.5t147 -147t202.5 -54zM510 -146q-90 0 -172.5 35.5t-142 94.5t-94.5 141.5t-35 172.5t35 172.5t94.5 142t142 94.5t172.5 35t172.5 -35
t141.5 -94.5t94.5 -142t35.5 -172.5t-35.5 -172.5t-94.5 -141.5t-141.5 -94.5t-172.5 -35.5v0v0z" />
    <glyph glyph-name="sousuo" unicode="&#xe632;" horiz-adv-x="1025" 
d="M1019 -185l-282 282q0 1 -0.5 1h-0.5q54 58 84 132.5t30 156.5q0 115 -57 213t-155 155t-213 57t-213 -57t-155 -155t-57 -213t57 -213t155 -155t213 -57q82 0 156.5 30t132.5 84v-0.5t1 -0.5l282 -282q4 -5 11 -5t11 5q12 11 0 22zM425 -6q-107 0 -197.5 52.5t-143 143
t-52.5 197.5t52.5 197.5t143 143t197.5 52.5t197.5 -52.5t143 -143t52.5 -197.5t-52.5 -197.5t-143 -143t-197.5 -52.5z" />
    <glyph glyph-name="jiantou" unicode="&#xe635;" 
d="M768 293l-460 448l-52 -51l408 -397l-408 -398l52 -50z" />
    <glyph glyph-name="wodeshoucang" unicode="&#xe63a;" 
d="M501 -105q-9 0 -14 5q-165 166 -257.5 276.5t-129 181.5t-36.5 130q0 92 59.5 154t155.5 62q74 0 140.5 -30.5t101.5 -95.5q68 126 218 126q100 0 160 -65.5t60 -155.5q0 -180 -287 -468q-7 -7 -16.5 -6.5t-16 8t-5.5 16.5t8 16q120 121 195 242t75 192q0 67 -46.5 121
t-124.5 54h-2q-124 -1 -179 -106q-17 -32 -38 -32v0q-22 0 -39 32q-29 56 -85 81t-118 25h-1q-41 0 -73 -14t-49.5 -34t-29 -45t-14.5 -43t-3 -32q0 -84 84.5 -200t320.5 -354q16 -16 4 -32q-7 -9 -18 -9z" />
    <glyph glyph-name="jiantou1" unicode="&#xe603;" 
d="M376 279q-9 -9 -22.5 -9t-22.5 9v0q-9 9 -9 22.5t9 22.5l317 317q9 9 22.5 9t22.5 -9v0q9 -9 9 -22.5t-9 -22.5zM693 4q9 -9 9 -22.5t-9 -22.5v0q-9 -9 -22.5 -9t-22.5 9l-317 317q-9 9 -9 22.5t9 22.5v0q9 9 22.5 9t22.5 -9z" />
    <glyph glyph-name="cshy-rmb2" unicode="&#xe62c;" 
d="M606 498l-59 -108q-23 -44 -28 -58h-1q-16 35 -88 166h-55l103 -176h-85v-39h99v-54h-99v-39h99v-78h49v78h95v39h-95v54h95v39h-81l103 176h-52zM887 309l67 154l-73 -18q-44 111 -143 180.5t-222 69.5q-106 0 -196 -52.5t-142.5 -143t-52.5 -197t52.5 -196.5
t142.5 -141.5t196 -51.5q121 0 219.5 66.5t142.5 173.5h-45q-43 -90 -128 -145t-189 -55q-95 0 -176 47t-128 128t-47 176t47 176t128 128t176 47q109 0 197.5 -61t128.5 -159l-86 -21z" />
    <glyph glyph-name="iconbig05" unicode="&#xe625;" 
d="M666 322q0 82 -58.5 140t-141 58t-140.5 -58t-58 -140t58 -140t140.5 -58t141 58t58.5 140zM467 148q-73 0 -124.5 51t-51.5 123t51.5 123.5t124 51.5t124 -51.5t51.5 -123.5q-1 -72 -52 -123t-123 -51zM619 172l-14 -14l91 -92l14 14z" />
    <glyph glyph-name="youhuiquan" unicode="&#xe623;" 
d="M833 -59h-642q-29 0 -49.5 21t-20.5 50v154q0 18 10.5 32.5t27.5 20.5q32 9 52 36q21 28 21 62t-21 62q-20 26 -52 36q-17 6 -27.5 20.5t-10.5 32.5v154q0 29 20.5 50t49.5 21h642q29 0 49.5 -21t20.5 -50v-154q0 -18 -10.5 -32.5t-27.5 -20.5q-32 -9 -52 -36
q-21 -28 -21 -62t21 -62q20 -27 52 -36q17 -6 27.5 -20.5t10.5 -32.5v-154q0 -29 -20.5 -50t-49.5 -21zM191 656q-14 0 -23.5 -10t-9.5 -24v-154q0 -14 12 -17q44 -14 71 -50q28 -37 28 -84t-28 -84q-27 -36 -71 -50q-12 -3 -12 -17v-154q0 -14 9.5 -24t23.5 -10h642
q14 0 23.5 10t9.5 24v154q0 14 -12 17q-44 14 -71 50q-28 37 -28 84t28 84q27 36 71 49q12 4 12 18v154q0 14 -9.5 24t-23.5 10h-642v0zM651 255h-122v72h122q7 0 12.5 5.5t5.5 13t-5.5 13t-12.5 5.5h-93l105 104q5 5 5 13t-5.5 13t-13 5t-13.5 -5l-124 -124l-124 124
q-5 5 -13 5t-13.5 -5t-5.5 -13t6 -13l104 -104h-93q-7 0 -12.5 -5.5t-5.5 -13t5.5 -13t12.5 -5.5h119v-72h-119q-7 0 -12.5 -5.5t-5.5 -13t5.5 -13t12.5 -5.5h119v-100q0 -7 5.5 -12.5t13 -5.5t13 5.5t5.5 12.5v100h122q7 0 12.5 5.5t5.5 13t-5.5 13t-12.5 5.5z" />
    <glyph glyph-name="daifukuan1" unicode="&#xe604;" 
d="M905 51q-10 0 -18 -7.5t-8 -18.5v0v0v0v-132q0 -21 -15 -36.5t-37 -15.5h-496v0h-227q-22 0 -37 15.5t-15 36.5v669q0 22 15 37t37 15h723q22 0 37 -15t15 -37v-139v0q0 -11 8 -18.5t18.5 -7.5t18 7.5t7.5 18.5v0v144q0 41 -29 70t-69 29h-734q-41 0 -70 -29t-29 -70
v-679q0 -41 29 -69.5t70 -28.5h734q40 0 69 28.5t29 69.5v137q0 11 -7.5 18.5t-18.5 7.5v0zM924 360h-378q-38 0 -66 -25.5t-32 -62.5q0 -2 -1 -5v-82q0 -41 29 -70t70 -29h378q41 0 70 29t29 70v69v0v8q0 40 -29 69t-70 29v0zM971 190q0 -21 -15.5 -36.5t-36.5 -15.5h-332
v0h-36q-21 0 -36.5 15.5t-15.5 36.5v66q0 22 15.5 37t36.5 15h368q21 0 36.5 -15t15.5 -37v-66v0zM889 256q-13 0 -22 -9.5t-9 -22.5t9 -22.5t22 -9.5t22.5 9.5t9.5 22.5t-9.5 22.5t-22.5 9.5v0zM889 256z" />
    <glyph glyph-name="shoucang" unicode="&#xe606;" 
d="M935 487q-1 22 -12 56q-19 59 -56 101q-31 36 -74 55q-48 23 -108 23v0q-88 0 -150 -58q-13 -12 -23 -26q-30 39 -74.5 62t-95.5 23q-80 0 -138 -37q-47 -30 -77 -82q-33 -57 -38 -116v-2v-1q0 -48 8 -77q16 -62 48 -97l367 -395l370 396q24 31 34.5 57.5t16.5 62.5
q5 31 2 55zM847 334l-335 -355l-334 356q-13 18 -22.5 34.5t-15 26.5t-8 25.5t-3 19.5t0 22.5t0.5 21.5q0 4 1 11t6.5 27.5t14 39.5t25 41.5t37.5 39t54.5 27.5t73.5 11q28 1 62 -12.5t66 -46t43 -75.5q0 1 4.5 14.5t17 34.5t31 40t50 32.5t69.5 11.5q52 -2 92.5 -22.5
t62 -48t35 -57t17 -47.5t2.5 -23q1 0 1 -7.5t-1.5 -22t-5.5 -32.5t-14.5 -41.5t-26.5 -45.5z" />
    <glyph glyph-name="daifukuan" unicode="&#xe60b;" 
d="M916 -7h-808q-17 0 -30 12.5t-13 30.5v528q0 18 13 30.5t30 12.5h808q17 0 30 -12.5t13 -30.5v-528q0 -18 -13 -30.5t-30 -12.5zM108 578q-5 0 -9 -4t-4 -10v-528q0 -6 4 -10t9 -4h808q5 0 9 4t4 10v528q0 6 -4 10t-9 4h-808zM80 538h864v-30h-864v30zM80 412h864v-29
h-864v29zM205 76h-55q-6 0 -10.5 4.5t-4.5 10.5t4.5 10.5t10.5 4.5h55q6 0 10.5 -4.5t4.5 -10.5t-4.5 -10.5t-10.5 -4.5zM637 76h-404q-6 0 -10 4.5t-4 10.5t4 10.5t10 4.5h404q6 0 10.5 -4.5t4.5 -10.5t-4.5 -10.5t-10.5 -4.5z" />
    <glyph glyph-name="dingdan" unicode="&#xe613;" 
d="M277 471h470q9 0 15 6t6 15t-6 15t-15 6h-470q-9 0 -15 -6t-6 -15t6 -15t15 -6zM277 343h470q9 0 15 6t6 15t-6 15t-15 6h-470q-9 0 -15 -6t-6 -15t6 -15t15 -6zM277 215h470q9 0 15 6t6 15t-6 15t-15 6h-470q-9 0 -15 -6t-6 -15t6 -15t15 -6zM277 87h470q9 0 15 6t6 15
t-6 15t-15 6h-470q-9 0 -15 -6t-6 -15t6 -15t15 -6zM347 734v0v0v0zM729 734v0v0v0zM832 769h-640q-26 0 -45 -18.5t-19 -45.5v-784q0 -27 19 -45.5t45 -18.5h393q60 -1 86 -22q5 -4 11 -4q8 0 14 6q4 6 3.5 13t-6.5 12q-36 29 -108 30h-393q-12 0 -20.5 8.5t-8.5 20.5v784
q0 12 8.5 20.5t20.5 8.5h155v0q33 -4 46 -33q2 -8 6 -17t18 -22t34 -16h1h172h2q19 3 33 16t18.5 22t6.5 17q12 29 45 33v0h103q12 0 20.5 -8.5t8.5 -20.5v-784q0 -12 -8.5 -20.5t-20.5 -8.5h-86q-7 0 -12 -5t-5 -12.5t5 -12.5t12 -5h86q26 0 45 18.5t19 45.5v784
q0 27 -19 45.5t-45 18.5zM651 714l-1 -2v-2q-1 -2 -2.5 -6.5t-9 -12.5t-17.5 -10h-166q-23 5 -28 29l-1 2v2q-5 11 -12 20h248q-7 -9 -11 -20z" />
    <glyph glyph-name="gouwuche" unicode="&#xe60f;" 
d="M794 246l-575 17l-142 355l770 51zM241 295l525 -15l44 354l-687 -46zM747.5 -28q-33.5 0 -57 23.5t-23.5 57t23.5 57t57 23.5t57.5 -23.5t24 -57t-24 -57t-57.5 -23.5zM748 101q-20 0 -34.5 -14t-14.5 -34.5t14.5 -34.5t34.5 -14t34 14t14 34.5t-14 34.5t-34 14z
M278.5 -28q-33.5 0 -57.5 23.5t-24 57t24 57t57.5 23.5t57 -23.5t23.5 -57t-23.5 -57t-57 -23.5zM278 101q-20 0 -34 -14t-14 -34.5t14 -34.5t34 -14t34.5 14t14.5 34.5t-14.5 34.5t-34.5 14zM845 649l-32 5l17 107l107 35l10 -30l-88 -30zM748 158l-15 30l23 60l38 -2z
M201 137l-8 29l69 14h473v-32h-471z" />
    <glyph glyph-name="help-tel" unicode="&#xe638;" 
d="M774 -57q-91 -22 -217 46.5t-234 198.5q-68 81 -114.5 170.5t-66 169.5t-11 148t46.5 108q33 34 83 42q6 3 8 3v0q34 8 75.5 -35.5t65.5 -112.5q17 -48 20 -91t-10 -71q-10 -23 -29 -28q-17 -3 -24 -21q-8 -21 5 -52q34 -53 75 -102q44 -53 93 -97l3 -2q16 -12 33 -8
t31 24l1 2q8 27 40 34q53 13 126 -27q58 -31 93 -78t27 -83q-1 -6 -2 -10q-13 -55 -46 -88q-29 -30 -72 -40v0zM260 780q-32 -7 -54 -30q-31 -32 -35.5 -93t15 -133t63 -153.5t103.5 -153.5q101 -121 216 -185.5t196 -45.5q33 8 54 30q25 26 35 68q1 5 2 9q3 15 -23.5 49.5
t-73.5 59.5q-60 33 -99 23q-11 -2 -12 -5q-2 -8 -6 -14q-21 -33 -55 -41q-33 -7 -64 15q-2 1 -6 5q-52 47 -98 101q-42 51 -77 106q-3 4 -5 8q-22 51 -6 90q7 16 19.5 27.5t19 14t11.5 3.5q2 1 4 6q8 13 6 49t-17 76q-14 39 -34 68.5t-35.5 41t-23.5 10.5q-5 -3 -11 -4
q-5 -1 -9 -2v0zM869 503l-40 -1q-7 95 -71.5 160.5t-150.5 63.5l-3 45q102 3 179.5 -75.5t85.5 -192.5v0zM675 489l-40 -1q0 9 -6.5 15t-14.5 6l-3 45q25 0 43.5 -19t20.5 -46v0zM762 512l-40 -2q-3 42 -31 70.5t-65 27.5l-3 44q53 2 94 -39.5t45 -100.5v0zM762 512z" />
    <glyph glyph-name="arrowDown" unicode="&#xe662;" 
d="M528 145l438 431q5 5 5 12.5t-5 12.5t-12 5t-12 -5l-426 -419l-425 424q-5 5 -12 5t-12 -5t-5 -12t5 -12l437 -437q5 -5 12 -5t12 5z" />
    <glyph glyph-name="daishouhuo" unicode="&#xe803;" 
d="M889 790h-497q-26 0 -44.5 -18.5t-18.5 -44.5v-105q0 -3 -3 -4l-175 -92q-37 -20 -58.5 -55.5t-21.5 -77.5v-295q0 -9 6.5 -16t16.5 -7t16.5 7t6.5 16v295q0 29 15 53.5t41 38.5l175 92q27 14 27 45v105q0 7 5 12t12 5h497q7 0 12 -5t5 -12v-629q0 -9 7 -16t16.5 -7t16 7
t6.5 16v629q0 26 -18.5 44.5t-44.5 18.5zM701 218q-43 0 -76 -27.5t-41 -69.5h-149q-9 42 -42 69.5t-76 27.5q-49 0 -84.5 -35t-35.5 -84.5t35.5 -84.5t84.5 -35q43 0 76 27.5t42 68.5h149q8 -41 41 -68.5t76 -27.5q50 0 85 35t35 84.5t-35 84.5t-85 35zM317.5 25
q-30.5 0 -52.5 21.5t-22 52t22 52t52.5 21.5t52 -21.5t21.5 -52t-21.5 -52t-52 -21.5zM701.5 25q-30.5 0 -52 21.5t-21.5 52t21.5 52t52 21.5t52 -21.5t21.5 -52t-21.5 -52t-52 -21.5zM390 300v179q0 10 -6.5 16.5t-16 6.5t-16.5 -6.5t-7 -16.5v-133h-124q-9 0 -16 -7
t-7 -16.5t7 -16t16 -6.5h170z" />
    <glyph glyph-name="tixing1" unicode="&#xe659;" 
d="M928 2h-44v1h-0.5h-1.5q-9 0 -15 6.5t-6 15.5t6 15t15 6h2h2h20h5t10.5 2.5t13.5 6.5t10.5 13t4.5 21q0 13 -4 23t-8.5 14.5t-15.5 14t-16 14.5l-109 108q-11 12 -16.5 28.5t-5.5 26.5v11v1h-2v190q0 102 -71.5 173.5t-173.5 71.5h-32q-102 0 -173.5 -71.5t-71.5 -173.5
v-190h-2q3 -40 -22 -66l-109 -109q-5 -5 -16 -14t-15.5 -14t-8.5 -15t-4 -22q0 -38 38 -43l6 -1h635q9 -1 14.5 -7t5.5 -14.5t-5.5 -14.5t-14.5 -7v0h-111q-1 -46 -33.5 -77.5t-78.5 -31.5h-15q-45 0 -77.5 31.5t-34.5 77.5h-307q-31 7 -47 29.5t-16.5 47t5 45.5t14.5 30
q4 4 46.5 41.5t74.5 69.5t32 42v65h2v150q0 106 68.5 185.5t171.5 96.5q1 29 21.5 49t49.5 20h10q29 0 50 -21t21 -50v-3q95 -23 156.5 -100t61.5 -177v-151h2v-65q0 -10 32 -41.5t74.5 -69t46.5 -41.5q9 -9 14.5 -30.5t5 -46t-16.5 -46.5t-47 -30v0zM447 -2q0 -25 17.5 -43
t43.5 -18h30q25 0 43 18t18 43v5h-152v-5zM534 831h-22q-5 0 -10.5 -5.5t-8.5 -11.5l-3 -5h66q0 9 -6.5 15.5t-15.5 6.5z" />
    <glyph glyph-name="daifahuo" unicode="&#xe654;" 
d="M96 640v0v-512q0 -46 33 -79t79 -33h608q46 0 79 33t33 79v512q0 46 -33 79t-79 33h-608q-46 0 -79 -33t-33 -79v0zM64 640q0 60 42 102t102 42h608q60 0 102 -42t42 -102v-512q0 -60 -42 -102t-102 -42h-608q-60 0 -102 42t-42 102v512v0zM111 528h274h16v32h-16h-274
h-16v-32h16v0zM640 528h274h16v32h-16h-274h-16v-32h16v0zM592 305v479l32 -34h-224l32 34v-479q-12 -11 -23 -23l-9 3v35l21 21q14 12 27 22q37 28 64 28t64 -28q13 -9 27 -22l21 -21v-35l-9 -3q-11 12 -23 23v0zM400 784h224v-512q-8 10 -21.5 24t-43.5 37.5t-47 23.5
q-10 0 -25.5 -8.5t-30 -21t-27.5 -25t-21 -21.5l-8 -9v512v0zM168 432h112q7 0 11.5 4.5t4.5 11.5t-4.5 11.5t-11.5 4.5h-112q-7 0 -11.5 -4.5t-4.5 -11.5t4.5 -11.5t11.5 -4.5v0z" />
    <glyph glyph-name="daishouhuo1" unicode="&#xe657;" 
d="M97 48v399v-3q0 3 3 8q5 12 15 23q14 15 36 23l2 2q8 5 85 45v0l1 1v0q28 14 61 32l20 10q6 4 8 4q10 7 20 17q20 22 20 47v0v0v0v0v1v1v4v14v44v31v33q0 3 3 7q3 7 15 7h480q3 0 10 -1q13 -2 23 -6q29 -11 29 -38v-120v-214v-178v-115v-46q0 -7 5 -11.5t11.5 -4.5
t11 4.5t4.5 11.5v46v115v178v214v120q0 48 -49 68q-23 9 -45 9h-480q-31 0 -43 -23q-7 -11 -7 -23v-33v-31v-44v-14v-4v-1v-1v0v0v0v0q0 -13 -11 -25q-7 -7 -13 -11q-1 0 -7 -3q-9 -5 -20 -11q-33 -17 -60 -32v0h-2v0q-78 -42 -87 -47l3 1q-29 -11 -48 -32q-21 -22 -26 -46
v-3v-399q0 -7 4.5 -11.5t11.5 -4.5t11.5 4.5t4.5 11.5zM194 337h160q7 0 11.5 4.5t4.5 11.5v144q0 6 -4.5 11t-11 5t-11.5 -5t-5 -11v-144l16 16h-160q-7 0 -11.5 -5t-4.5 -11.5t4.5 -11t11.5 -4.5zM336 -64q53 0 90.5 37.5t37.5 90.5t-37.5 90.5t-90.5 37.5t-90.5 -37.5
t-37.5 -90.5t37.5 -90.5t90.5 -37.5zM336 -32q-40 0 -68 28t-28 68t28 68t68 28t68 -28t28 -68t-28 -68t-68 -28zM689 -64q53 0 90.5 37.5t37.5 90.5t-37.5 90.5t-90.5 37.5t-90.5 -37.5t-37.5 -90.5t37.5 -90.5t90.5 -37.5zM689 -32q-39 0 -67.5 28t-28.5 68t28.5 68t68 28
t67.5 -28t28 -68t-28 -68t-68 -28v0zM465 32h96q6 0 11 4.5t5 11.5t-5 11.5t-11 4.5h-96q-7 0 -11.5 -4.5t-4.5 -11.5t4.5 -11.5t11.5 -4.5v0z" />
    <glyph glyph-name="tuikuan" unicode="&#xe671;" 
d="M569 400h87q7 0 11.5 -4.5t4.5 -11.5t-4.5 -11.5t-11.5 -4.5h-96v-64h96q7 0 11.5 -4.5t4.5 -11.5t-4.5 -11.5t-11.5 -4.5h-96v-145q0 -6 -4.5 -11t-11 -5t-11.5 5t-5 11v145h-96q-7 0 -11.5 4.5t-4.5 11.5t4.5 11.5t11.5 4.5h96v64v0h-96q-7 0 -11.5 4.5t-4.5 11.5
t4.5 11.5t11.5 4.5h87l-97 84q-12 10 -1.5 22t22.5 2l101 -88l102 88q12 10 22.5 -2t-2.5 -22zM145 407q8 104 64 190.5t146.5 136.5t196.5 50q169 0 288.5 -119.5t119.5 -288.5t-119.5 -288.5t-288.5 -119.5q-156 0 -273 105q-12 10 -1 22t23 1q107 -96 251 -96
q156 0 266 110t110 266t-110 266t-266 110t-266 -110t-110 -266v-1l100 100q11 11 22.5 0t0.5 -23l-128 -127q-6 -6 -14.5 -4.5t-11.5 8.5l-79 175q-2 6 0 12t8 9t12.5 0.5t8.5 -8.5l50 -110v0zM161 360q2 0 5 1l8 -18l-26 4l13 13v0z" />
    <glyph glyph-name="daifukuan2" unicode="&#xe7a0;" 
d="M732 69h-496q-38 0 -65.5 27.5t-27.5 65.5v444q0 38 27.5 65.5t65.5 27.5h496q39 0 66 -27.5t27 -65.5v-73q0 -6 -4.5 -11t-11 -5t-11.5 5t-5 11v73q0 25 -17.5 43t-43.5 18h-496q-25 0 -43 -18t-18 -43v-444q0 -25 18 -43t43 -18h496q26 0 43.5 18t17.5 43v86
q0 7 5 11.5t11.5 4.5t11 -4.5t4.5 -11.5v-86q0 -38 -27 -65.5t-66 -27.5v0zM732 69zM814 285h-223q-28 0 -47.5 19.5t-19.5 47.5v76q0 27 19.5 47t47.5 20h223q27 0 47 -20t20 -47v-76q0 -28 -20 -47.5t-47 -19.5v0zM591 463q-15 0 -25 -10.5t-10 -24.5v-76q0 -14 10 -24.5
t25 -10.5h223q14 0 24.5 10.5t10.5 24.5v76q0 14 -10.5 24.5t-24.5 10.5h-223v0zM591 463zM632 360q-13 0 -21.5 8.5t-8.5 21t8.5 21.5t21 9t21.5 -9t9 -21.5t-9 -21t-21 -8.5v0zM632 392q-2 0 -2 -2t1.5 -2t1.5 2t-1 2v0zM632 392z" />
    <glyph glyph-name="zuji" unicode="&#xe63b;" 
d="M512 -66zM652 570q-45 44 -116 71q-56 21 -110 13q-74 -12 -106 -75q-44 -87 -14 -170q10 -27 17 -51q16 -56 -17 -106q-19 -29 -50 -56q-20 -18 -33 -41q-17 -29 -22 -62q-6 -47 12 -85q24 -52 80 -66q76 -20 139 22q35 23 69 58q77 82 148 189q42 64 61 131q5 28 6 30
q18 117 -64 198v0zM675 347q-16 -61 -66 -137q-57 -86 -116 -149l-6 -6.5t-11.5 -12.5t-15 -15t-20 -16.5t-23 -16t-26.5 -13.5t-29.5 -8.5t-32.5 -3t-34 5.5q-34 11 -51 56t-3 78q13 32 29 53t34 37.5t26 26.5q14 19 24 49.5t8 60.5q-1 15 -9 42.5t-14.5 49.5t-9 53t8.5 53
q16 37 37 59t60 25q57 4 111 -21t84 -55q75 -74 45 -195v0zM675 347zM375 810q-26 25 -58.5 21.5t-52.5 -32.5q-23 -33 -16.5 -77t38.5 -68q27 -21 57.5 -15.5t49.5 33.5q16 25 16 60q-2 48 -34 78v0zM368 698q-11 -17 -29 -21t-34 8q-20 14 -25 40t8 46q11 17 30.5 20
t35.5 -11q20 -18 22 -46q1 -21 -8 -36v0zM368 698zM544 782q-10 24 -31.5 31.5t-44.5 -4.5q-28 -15 -38.5 -49.5t4.5 -62.5q10 -21 30.5 -27t40.5 4q33 17 42 56q6 30 -3 52v0zM521 736q-6 -22 -24 -32q-11 -5 -22 -1.5t-17 14.5q-9 16 -3 35t22 27q12 7 24 2.5t18 -17.5
q5 -12 2 -28v0zM521 736zM660 734q-7 21 -25 29t-39 -1q-25 -11 -35.5 -40.5t0.5 -54.5q8 -18 25 -24.5t35 1.5q30 13 40 46q6 25 -1 44v0zM637 695q-5 -17 -20 -24q-10 -4 -18.5 -0.5t-13.5 12.5q-6 13 0 28.5t19 21.5q10 5 19.5 0.5t13.5 -15.5q4 -10 0 -23v0zM637 695z
M764 654q-4 21 -20.5 31.5t-37.5 4.5q-26 -8 -40.5 -34.5t-7.5 -52.5q6 -19 21.5 -27.5t34.5 -3.5q30 8 44 39q10 23 6 43v0zM734 621q-7 -15 -22 -19q-9 -3 -16.5 1.5t-10.5 13.5q-4 13 3.5 26t20.5 17q10 3 18 -2t10 -16q2 -9 -3 -21v0zM734 621zM823 543q-1 20 -15 31.5
t-34 7.5q-25 -4 -41.5 -27t-12.5 -47q3 -18 16.5 -28t31.5 -7q28 4 45 31q11 20 10 39v0zM790 517q-7 -12 -20 -14q-8 -2 -14.5 2.5t-7.5 13.5q-2 11 5.5 21.5t18.5 12.5q10 1 16 -4t7 -14t-5 -18v0zM790 517z" />
    <glyph glyph-name="1" unicode="&#xe61d;" 
d="M973 45v0q0 -46 -32 -78t-78 -32v0h-702v0q-46 0 -78 32t-32 78v658q0 36 26 62t62 26v0h355l77 39q25 8 38 -2l21 -37h167q37 0 62.5 -26t25.5 -62v-66v0q36 0 62 -25.5t26 -62.5v-504v0v0v0zM139 747v0q-17 0 -30.5 -23t-13.5 -43q0 -18 13 -31t31 -13h32h-22h4
l0.5 0.5l0.5 0.5l263 109h-278v0v0v0zM601 743l-23 42v0l-78 -38v0l-242 -110h396l-53 106v0v0v0zM841 703q0 18 -13 31t-31 13h-151l54 -110h141v0v66v0v0v0zM885 593h-746v0q-23 0 -44 13v-561q0 -27 19.5 -46.5t46.5 -19.5h702q27 0 46.5 19.5t19.5 46.5v153h-88
q-36 0 -62 26t-26 62.5t26 62t62 25.5h88v175q0 19 -13 31.5t-31 12.5v0v0v0zM929 242v88h-88q-18 0 -31 -13t-13 -31t13 -31t31 -13h88v0v0v0v0zM841 308h44v-44h-44v44v0v0v0zM841 308z" />
    <glyph glyph-name="dingdan1" unicode="&#xe609;" 
d="M697 574h-365q-6 0 -11 -5.5t-5 -13.5t5 -13.5t11 -5.5h365q7 0 11.5 5.5t4.5 13.5t-4.5 13.5t-11.5 5.5zM697 400h-365q-6 0 -11 -5.5t-5 -13.5t5 -13.5t11 -5.5h365q7 0 11.5 5.5t4.5 13.5t-4.5 13.5t-11.5 5.5zM697 226h-365q-6 0 -11 -5.5t-5 -13.5t5 -13.5t11 -5.5
h365q7 0 11.5 5.5t4.5 13.5t-4.5 13.5t-11.5 5.5zM440 739h144q12 0 20.5 10t8.5 23.5t-8.5 23.5t-20.5 10h-144q-12 0 -20.5 -10t-8.5 -23.5t8.5 -23.5t20.5 -10zM817 779h-128q-6 0 -11 -5.5t-5 -13t5 -13.5t11 -6h128v0v-740v-1h-610v0v741v0h114q7 0 11.5 6t4.5 13.5
t-4.5 13t-11.5 5.5h-114q-14 0 -23.5 -11t-9.5 -27v-741q0 -15 9.5 -26.5t23.5 -11.5h610q14 0 23.5 11.5t9.5 26.5v741q0 16 -9.5 27t-23.5 11z" />
    <glyph glyph-name="daishouhuo2" unicode="&#xe624;" horiz-adv-x="3161" 
d="M1796 196q-47 0 -84 -29.5t-48 -76.5l-2 -9h-159l-2 9q-10 47 -47 76.5t-84 29.5q-57 0 -96.5 -40t-39.5 -97q-1 -57 38.5 -97t95.5 -40q46 0 82.5 28t48.5 73l2 10h162l2 -10q12 -44 48.5 -72.5t82.5 -28.5q56 0 96 40t40 97t-39.5 97t-96.5 40v0zM1368 -30
q-36 0 -62 26t-26 63t26 62.5t62 25.5t62 -26t26 -62q0 -37 -25.5 -63t-62.5 -26v0zM1796 -30q-37 0 -62.5 26t-25.5 63t25.5 62.5t62 25.5t62.5 -26t26 -62.5t-26 -62.5t-62 -26v0zM1796 -30zM1255 323h145q10 0 17 7.5t7 17.5v145q0 10 -7 17.5t-17 7.5t-17 -7.5t-7 -17.5
v-121h-121q-10 0 -17 -7t-7 -18q0 -10 7 -17t17 -7v0zM1255 323zM1979 845h-525q-32 0 -55 -23t-23 -56v-113l-227 -114q-2 -1 -3 -2q-59 -41 -59 -117v-366q0 -10 7 -17t17 -7t17 7t7 17v366q0 49 36 75l2 1l237 120q0 1 1 1.5t2 1.5l1 1q3 1 3 2q1 1 1 3l2 3l1 1v2
q1 0 1 3v2q0 1 1 3v1v127q0 12 9 21t21 9h525q20 0 34 -14.5t14 -34.5v-691q0 -10 7 -17.5t17 -7.5t17 7t7 18v690q0 41 -28 69.5t-67 28.5v0zM1979 845z" />
    <glyph glyph-name="shezhi1" unicode="&#xe640;" 
d="M611 -90h-198q-8 0 -10 7l-37 110l-36 17l-107 -38q-7 -3 -11 3l-125 159q-4 6 0 12l61 99l-9 39l-97 62q-6 4 -4 11l44 199q2 7 9 8l113 13l24 31l-13 116q0 8 6 11l179 88q7 4 12 -2l80 -82h40l80 82q5 6 12 2l179 -88q6 -3 6 -11l-13 -115l24 -32l113 -13q7 -1 9 -8
l44 -199q2 -7 -4 -11l-97 -62l-8 -39l60 -99q4 -6 0 -12l-124 -159q-5 -6 -12 -3l-107 38l-35 -17l-38 -110q-2 -7 -10 -7zM420 -70h184l37 107q1 4 5 6l43 22q4 1 8 0l104 -38l115 148l-59 97q-2 3 -1 7l10 48q1 4 5 6l94 61l-41 184l-110 13q-5 0 -7 4l-30 38q-3 4 -2 8
l12 113l-166 82l-78 -81q-3 -3 -7 -3h-48q-4 0 -7 3l-78 81l-166 -82l12 -113q1 -4 -2 -8l-30 -38q-2 -4 -7 -4l-109 -13l-42 -184l94 -61q4 -2 5 -6l10 -48q1 -4 -1 -7l-59 -97l115 -148l104 38q4 1 8 0l43 -22q4 -2 6 -6zM512 169q-89 0 -152 63t-63 152t63 151.5
t152 62.5t151.5 -62.5t62.5 -151.5t-62.5 -152t-151.5 -63zM512 578q-80 0 -137 -57t-57 -137t57 -137t137 -57t137 57t57 137t-57 137t-137 57z" />
    <glyph glyph-name="xingxing" unicode="&#xe6cc;" 
d="M893 187zM492 558zM568 557zM973 504q-11 35 -64 52l-1 1l-189 48q-35 51 -123 176v0.5v0.5q-31 40 -69 40q-40 0 -69 -42l-105 -161q-37 -10 -141 -40l-69 -20q-48 -15 -60 -47q-12 -34 18 -80q1 -2 1 -3q55 -64 124 -147q-3 -102 -6 -212q-5 -51 15 -73q16 -18 44 -18
q20 0 53 11l182 70q84 -30 206 -72q21 -6 38 -6q26 0 48 18t24 67v2q-3 47 -11 189v1l134 169q31 42 20 76zM919 454l-139 -175q-5 -6 -4 -14v-9l12 -188q-1 -16 -4 -25.5t-8.5 -13t-9 -4.5t-8.5 -1q-11 0 -24 4q-143 50 -214 75q-7 2 -14 -1l-188 -72q-26 -8 -39 -8
q-9 0 -12 3q-8 9 -5 41v2q3 109 7 221q0 8 -5 14q-57 68 -128 153q-18 28 -13 41q4 13 32 21l69 20q106 31 149 43q7 2 11 8l110 167q16 24 33 24t35 -23q90 -130 127 -183q5 -6 12 -8l196 -50q31 -11 36 -25q4 -13 -14 -37z" />
    <glyph glyph-name="asmkticon0126" unicode="&#xe7ae;" 
d="M736 768h-64q-8 0 -13.5 -5.5t-5.5 -13.5t5.5 -13.5t13.5 -5.5h64q24 0 41 -17t17 -41v-576q0 -24 -17 -41t-41 -17h-448q-24 0 -41 17t-17 41v576q0 24 17 41t41 17h64q8 0 13.5 5.5t5.5 13.5t-5.5 13.5t-13.5 5.5h-64q-40 0 -68 -28t-28 -68v-576q0 -40 28 -68t68 -28
h448q40 0 68 28t28 68v576q0 40 -28 68t-68 28zM672 371h-320q-8 0 -13.5 -5.5t-5.5 -13.5t5.5 -13.5t13.5 -5.5h320q8 0 13.5 5.5t5.5 13.5t-5.5 13.5t-13.5 5.5zM672 499h-320q-8 0 -13.5 -5.5t-5.5 -13.5t5.5 -13.5t13.5 -5.5h320q8 0 13.5 5.5t5.5 13.5t-5.5 13.5
t-13.5 5.5zM448 730h128q8 0 13.5 5.5t5.5 13.5t-5.5 13.5t-13.5 5.5h-128q-8 0 -13.5 -5.5t-5.5 -13.5t5.5 -13.5t13.5 -5.5zM672 244h-320q-8 0 -13.5 -5.5t-5.5 -14t5.5 -14t13.5 -5.5h320q8 0 13.5 5.5t5.5 14t-5.5 14t-13.5 5.5z" />
    <glyph glyph-name="dianhua" unicode="&#xe641;" 
d="M634 -62q-100 0 -209 84t-187 221q-67 117 -89.5 233t2.5 204t93 127q46 25 102 23h9h0.5h1.5q45 0 82.5 -50.5t46.5 -126.5q7 -49 -2 -91.5t-31 -67.5q-24 -28 -57 -29q-2 0 -3 -1q-3 -4 -1 -16q19 -47 45 -92q28 -49 61 -92l1 -1q4 -4 8 -4q5 0 12 4q23 31 69 31
q63 0 132 -53q59 -46 82 -102.5t1 -96.5q-4 -7 -6 -10q-32 -49 -71 -71q-41 -23 -92 -23v0v0v0zM588 244q-22 0 -29 -12q-2 -3 -5 -5q-21 -19 -47 -19q-25 0 -43 19l-4 4q-37 47 -67 100q-28 49 -49 100q-1 2 -1 5q-8 37 10 59q17 21 42 21q11 0 20 10q14 17 20 50t1 71
q-7 55 -31.5 94t-48.5 39h-3q-3 -1 -7 -1q-43 3 -76 -16q-55 -31 -72.5 -109t4.5 -181.5t80 -204.5q70 -124 168.5 -202t183.5 -78q38 0 67 17q33 18 55 56q3 5 5 8q10 20 -10 59.5t-63 72.5q-54 43 -100 43v0v0zM668 413h-5q-10 2 -16 11t-4 19q3 15 -6 28t-25 15
q-10 2 -16 11t-4 19t10.5 16t19.5 4q36 -6 57 -36t14 -66q-2 -9 -9 -15t-16 -6v0v0zM754 415h-5q-10 2 -16 10.5t-4 19.5q8 42 -17 77.5t-67 43.5q-11 2 -17 10.5t-4 19t11 16.5t19 4q63 -12 100 -64.5t25 -115.5q-2 -9 -9 -15t-16 -6v0v0zM853 387q-2 0 -5 1q-10 1 -16 10
t-4 19q16 88 -35 161t-139 89q-11 2 -17 11t-4 19t11 16t19 4q109 -20 172 -110.5t43 -198.5q-2 -9 -9 -15t-16 -6v0v0zM853 387z" />
    <glyph glyph-name="bangzhuzhongxin" unicode="&#xe628;" 
d="M512 896q-139 0 -257 -68.5t-186.5 -186.5t-68.5 -257t68.5 -257t186.5 -186.5t257 -68.5t257 68.5t186.5 186.5t68.5 257t-68.5 257t-186.5 186.5t-257 68.5zM512 -81q-94 0 -180 37t-148 99.5t-99 148.5t-37 180t37 180t99 148t148 99t180 37t180 -37t148 -99t99 -148
t37 -180t-37 -180t-99 -148.5t-148 -99.5t-180 -37zM521 672q-93 0 -147 -54.5t-54 -148.5v0q1 -15 11.5 -25.5t25.5 -10.5t26 10.5t11 25.5v0v1v0v1q1 139 123 139q47 0 77.5 -27t30.5 -70q0 -50 -56 -101l-29 -25q-41 -37 -52.5 -64t-11.5 -88v0v-4q0 -14 10 -24t24 -10
t24 9t11 23v0v13q0 62 60 111q99 81 99 156q0 72 -51 117.5t-132 45.5zM512 158q-19 0 -33 -14t-14 -33t14 -33t33 -14t33 14t14 33t-14 33t-33 14z" />
    <glyph glyph-name="wodeqianbao" unicode="&#xe607;" 
d="M840 547h-28v100q0 23 -16 39.5t-40 16.5h-150l-20 31q-7 12 -19 15.5t-22 -3.5l-69 -43h-263h-4q-34 -1 -57 -30q-22 -28 -22 -66q0 -20 6 -37q-1 -3 -1 -5v-511q0 -23 16.5 -39.5t39.5 -16.5h649q24 0 40.5 16.5t16.5 39.5v437q0 23 -16.5 39.5t-40.5 16.5zM859 247
h-74q-16 0 -27 11t-11 27t11 27.5t27 11.5h74v-77zM756 666q8 0 13.5 -5.5t5.5 -13.5v-100h-72l-74 119h127zM557 710l102 -163h-345q-3 1 -7 1h-10zM181 650q13 15 29 15h97q3 0 5 1h103l-188 -117l-1 -1h-16q-16 0 -29 16q-14 17 -14 42.5t14 43.5zM840 35h-649
q-7 0 -12.5 5.5t-5.5 13.5v456q2 -1 4 -1h663q8 0 13.5 -5.5t5.5 -12.5v-130h-74q-31 0 -53.5 -22t-22.5 -53.5t22.5 -54t53.5 -22.5h74v-155q0 -8 -5.5 -13.5t-13.5 -5.5zM798.5 268q7.5 0 13 5t5.5 12.5t-5.5 13t-13 5.5t-12.5 -5.5t-5 -13t5 -12.5t12.5 -5z" />
    <glyph glyph-name="wodeqianbao1" unicode="&#xe642;" 
d="M840 547h-28v100q0 23 -16 39.5t-40 16.5h-150l-20 31q-7 12 -19 15.5t-22 -3.5l-69 -43h-263h-4q-34 -1 -57 -30q-22 -28 -22 -66q0 -20 6 -37q-1 -3 -1 -5v-511q0 -23 16.5 -39.5t39.5 -16.5h649q24 0 40.5 16.5t16.5 39.5v437q0 23 -16.5 39.5t-40.5 16.5zM859 247
h-74q-16 0 -27 11t-11 27t11 27.5t27 11.5h74v-77zM756 666q8 0 13.5 -5.5t5.5 -13.5v-100h-72l-74 119h127zM557 710l102 -163h-345q-3 1 -7 1h-10zM181 650q13 15 29 15h97q3 0 5 1h103l-188 -117l-1 -1h-16q-16 0 -29 16q-14 17 -14 42.5t14 43.5zM840 35h-649
q-7 0 -12.5 5.5t-5.5 13.5v456q2 -1 4 -1h663q8 0 13.5 -5.5t5.5 -12.5v-130h-74q-31 0 -53.5 -22t-22.5 -53.5t22.5 -54t53.5 -22.5h74v-155q0 -8 -5.5 -13.5t-13.5 -5.5zM798.5 268q7.5 0 13 5t5.5 12.5t-5.5 13t-13 5.5t-12.5 -5.5t-5 -13t5 -12.5t12.5 -5z" />
    <glyph glyph-name="daifahuo1" unicode="&#xe60e;" 
d="M96 640v0v-512q0 -46 33 -79t79 -33h608q46 0 79 33t33 79v512q0 46 -33 79t-79 33h-608q-46 0 -79 -33t-33 -79v0zM64 640q0 60 42 102t102 42h608q60 0 102 -42t42 -102v-512q0 -60 -42 -102t-102 -42h-608q-60 0 -102 42t-42 102v512v0zM111 528h274h16v32h-16h-274
h-16v-32h16v0zM640 528h274h16v32h-16h-274h-16v-32h16v0zM592 305v479l32 -34h-224l32 34v-479q-12 -11 -23 -23l-9 3v35l21 21q14 12 27 22q37 28 64 28t64 -28q13 -9 27 -22l21 -21v-35l-9 -3q-11 12 -23 23v0zM400 784h224v-512q-8 10 -21.5 24t-43.5 37.5t-47 23.5
q-10 0 -25.5 -8.5t-30 -21t-27.5 -25t-21 -21.5l-8 -9v512v0zM168 432h112q7 0 11.5 4.5t4.5 11.5t-4.5 11.5t-11.5 4.5h-112q-7 0 -11.5 -4.5t-4.5 -11.5t4.5 -11.5t11.5 -4.5v0z" />
    <glyph glyph-name="tixing2" unicode="&#xe675;" 
d="M895 166q-8 10 -21 21l-1 1l-49 29q-19 10 -18 25l1 3v1l7 180q9 89 -23 160q-26 58 -77 101q-54 47 -118 66q-5 2 -9 4q-10 20 -30 33t-44 13q-23 0 -42.5 -12.5t-29.5 -32.5q-9 -2 -16 -5q-63 -19 -118 -66q-51 -43 -76 -101q-33 -71 -23 -159l7 -181v-1v-3
q2 -14 -18 -25l-48 -29l-2 -1q-10 -8 -20 -21q-23 -30 -17 -56q3 -16 19 -30.5t33 -16.5h4h175q12 -49 45 -87q53 -59 126 -59q64 0 113 41.5t60 104.5h171h4q16 1 32 16t20 31q5 26 -17 56zM512 -38q-53 0 -92 44q-23 25 -33 57h123h2h127q-10 -44 -45.5 -72.5t-81.5 -28.5
zM868 119q-2 -10 -19 -11h-337h-2h-338q-17 1 -18 11q0 4 0.5 7.5t1.5 5.5t4 5.5t4 4.5t5.5 5t5.5 5l44 25q31 17 39 46q4 14 2 27l-7 179v2q-15 137 82 221q48 41 104 58v0l1 1h1q14 6 45 11q14 2 25 3q11 -1 25 -3q30 -5 44 -11h1l2 -1q3 0 15.5 -4.5t39 -19.5t48.5 -34
q97 -84 83 -221v-2l-7 -179q-2 -13 1 -27q8 -29 40 -46l43 -25q1 -1 5.5 -5t6 -5t4.5 -4.5t3.5 -5.5t1.5 -5.5t1 -7.5z" />
    <glyph glyph-name="wodejifen" unicode="&#xe63e;" 
d="M701 450q-85 0 -146.5 -30.5t-61.5 -73.5v-285q0 -42 61.5 -73t146.5 -31t147 31t62 73v285q0 43 -62 73.5t-147 30.5zM879 135v-74q0 -10 -12 -22t-33 -23t-56.5 -18.5t-76.5 -7.5t-76.5 7.5t-56.5 18.5t-32.5 23t-11.5 22v74v14l12 -7q63 -42 165.5 -42t165.5 42l12 7
v-14zM879 278v-74q0 -10 -12 -22t-33 -23t-56.5 -19t-76.5 -8t-76.5 8t-56.5 19t-32.5 23t-11.5 22v74v14l12 -8q63 -41 165.5 -41t165.5 41l12 8v-14zM701 275q-41 0 -76.5 7.5t-56.5 19t-32.5 23.5t-11.5 21.5t11.5 21.5t32.5 23.5t56.5 19t76.5 7.5t76.5 -7.5t56.5 -19
t33 -23.5t12 -21.5t-12 -21.5t-33 -23.5t-56.5 -19t-76.5 -7.5zM116 651v-435q0 -42 43 -77.5t117 -56t161 -20.5h8q-6 14 -6 28v14h-2q-65 0 -120.5 11.5t-88.5 29.5t-51.5 36.5t-18.5 34.5v113v14v14l11 -8l12 -7q98 -63 256 -63h2v42h-2q-65 0 -120.5 12t-88.5 30
t-51.5 36.5t-18.5 33.5v114v14v14l11 -8l12 -7q98 -63 256 -63t256 63l12 7l11 8v-14v-14v-40q22 -2 42 -7v151q0 42 -43 77.5t-117 56t-161 20.5t-161 -20.5t-117 -56t-43 -77.5zM716 651.5q0 -15.5 -18.5 -34.5t-51.5 -36.5t-88.5 -29.5t-120.5 -12t-120.5 12t-88.5 29.5
t-51.5 36.5t-18.5 34.5t18.5 34t51.5 36t88.5 29.5t120.5 12t120.5 -12t88.5 -29.5t51.5 -36t18.5 -34z" />
    <glyph glyph-name="shezhi2" unicode="&#xe67d;" 
d="M927 504h-57q-9 0 -12 9l-11 33q-3 7 3 13l38 38q22 22 22 53.5t-22 53.5l-56 56q-22 22 -53.5 22t-53.5 -22l-38 -38q-4 -4 -9 -4q-2 0 -4 1l-33 10q-9 3 -9 13v57q0 31 -22 53.5t-54 22.5h-88q-32 0 -54.5 -22.5t-22.5 -53.5v-57q0 -9 -8 -12l-33 -11q-1 -1 -4 -1
q-5 0 -9 4l-38 38q-22 22 -53.5 22t-53.5 -22l-56 -56q-22 -22 -22 -53.5t22 -53.5l38 -38q6 -6 3 -14l-11 -32q-3 -9 -12 -9h-57q-31 0 -53.5 -22t-22.5 -54v-89q0 -31 22.5 -53.5t53.5 -22.5h57q9 0 12 -8l11 -33q3 -7 -3 -13l-38 -38q-22 -22 -22 -53.5t22 -53.5l56 -56
q22 -22 53.5 -22t53.5 22l38 38q4 4 9 4q3 0 4 -1l33 -11q9 -3 9 -12v-57q0 -31 22 -53.5t54 -22.5h88q32 0 54.5 22.5t22.5 53.5v57q0 9 8 12l33 11q2 1 4 1q5 0 9 -4l38 -38q22 -22 53.5 -22t54.5 22l55 55q22 23 22 54.5t-22 53.5l-38 38q-6 6 -3 13l11 33q3 9 12 9h57
q31 0 53.5 22t22.5 54v88q0 32 -22.5 54t-53.5 22zM960 340q0 -14 -10 -24t-23 -10h-57q-18 0 -32.5 -10.5t-20.5 -27.5l-10 -32q-11 -33 13 -57l38 -38q10 -10 10 -23.5t-10 -23.5l-56 -56q-9 -10 -23 -10t-24 10l-38 38q-16 16 -39 16q-9 0 -18 -2l-32 -11
q-17 -6 -27.5 -20.5t-10.5 -32.5v-57q0 -13 -10 -23t-24 -10h-88q-14 0 -24 10t-10 23v57q0 18 -10.5 32.5t-27.5 20.5l-32 11q-9 2 -18 2q-23 0 -39 -16l-38 -38q-10 -10 -23.5 -10t-23.5 10l-56 56q-10 10 -10 23.5t10 23.5l38 38q24 24 14 57l-11 32q-6 17 -20.5 27.5
t-32.5 10.5h-57q-13 0 -23 10t-10 24v88q0 14 10 24t23 10h57q18 0 32.5 10.5t20.5 27.5l11 32q10 33 -14 57l-38 38q-10 10 -10 23.5t10 23.5l56 56q9 10 23 10t24 -10l38 -38q16 -16 39 -16q9 0 18 3l32 10q17 6 27.5 20.5t10.5 32.5v57q0 13 10 23t24 10h88q14 0 24 -10
t10 -23v-57q0 -18 10.5 -32.5t27.5 -20.5l32 -11q9 -2 18 -2q22 0 39 16l38 38q10 10 23.5 10t23.5 -10l56 -56q10 -10 10 -23.5t-10 -23.5l-38 -38q-25 -24 -14 -57l11 -32q6 -17 20.5 -27.5t32.5 -10.5h57q13 0 23 -10t10 -24v-88v0zM512 555q-71 0 -121 -50t-50 -121
t50 -121t121 -50t121 50t50 121t-50 121t-121 50zM512 256q-53 0 -90.5 37.5t-37.5 90.5t37.5 90.5t90.5 37.5t90.5 -37.5t37.5 -90.5t-37.5 -90.5t-90.5 -37.5z" />
    <glyph glyph-name="bangzhuzhongxinshouji" unicode="&#xe663;" 
d="M512 -77q-94 0 -179 36.5t-147 98.5t-98.5 147t-36.5 179t36.5 179t98.5 147t147 98.5t179 36.5t179 -36.5t147 -98.5t98.5 -147t36.5 -179t-36.5 -179t-98.5 -147t-147 -98.5t-179 -36.5zM512 801q-113 0 -209 -56t-152 -152t-56 -209t56 -209t152 -152t209 -56t209 56
t152 152t56 209t-56 209t-152 152t-209 56zM527.5 240q-8.5 0 -14.5 6t-6 15v48q-2 7 2 14.5t24 28.5t60 55q32 32 32 78.5t-33 79.5t-80 33t-80 -33t-33 -80q0 -2 1 -9l-20 -7l-21 -2l21 2l-22 2q-1 8 -1 14q0 64 45.5 109.5t109.5 45.5t109.5 -45.5t45.5 -109.5t-46 -109
q-58 -50 -72 -69v-46q0 -9 -6.5 -15t-15 -6zM498 158.5q0 -12.5 8.5 -21.5t21 -9t21.5 9t9 21.5t-9 21t-21.5 8.5t-21 -8.5t-8.5 -21zM378 476zM357 476q0 9 6 15t15 6t15 -6t6 -15t-6 -15t-15 -6t-15 6t-6 15z" />
    <glyph glyph-name="tuikuan1" unicode="&#xe61c;" 
d="M427 353q-7 0 -11 4.5t-4 11t4 10.5t11 4h115l-111 112q-10 10 0 20t20 0l111 -110l114 113q11 11 21.5 0.5t-0.5 -21.5l-113 -114h114q6 0 10.5 -4t4.5 -10.5t-4.5 -11t-10.5 -4.5h-121v-60h121q6 0 10.5 -4.5t4.5 -10.5t-4.5 -10.5t-10.5 -4.5h-121v-75q0 -7 -4 -11.5
t-10.5 -4.5t-11 4.5t-4.5 11.5v75h-120q-7 0 -11 4.5t-4 10.5t4 10.5t11 4.5h120v60h-120v0zM562 -99q-97 0 -183 38.5t-149 107.5l25 18q58 -63 138 -98.5t169 -35.5q115 0 212 56.5t153.5 154t56.5 212t-56.5 211.5t-153.5 153.5t-212 56.5q-143 0 -255.5 -86.5
t-150.5 -221.5l107 80q12 9 21 -3t-3 -21l-138 -104l-0.5 -0.5l-1 -1l-1 -1t-1.5 -0.5l-2 -2q-12 -9 -21 3l-2 4l-96 137q-9 12 2.5 20.5t20.5 -2.5l84 -112q37 149 158.5 245.5t278.5 96.5q92 0 176 -36t144.5 -96.5t96 -144.5t35.5 -176t-35.5 -175.5t-96 -144
t-144.5 -96.5t-176 -36z" />
    <glyph glyph-name="1111112" unicode="&#xe614;" 
d="M925 519v132q0 46 -32 78t-78 32h-623q-46 0 -78 -32t-32 -78v-525q0 -45 32 -77.5t78 -32.5h623q46 0 78 32.5t32 77.5v146q29 4 47 26t18 52v91q0 28 -18.5 50t-46.5 28zM815 54h-623q-30 0 -51.5 21t-21.5 51v525q0 30 21.5 51t51.5 21h623q30 0 51 -21t21 -51v-130
h-238q-33 0 -56.5 -23.5t-23.5 -56.5v-89q0 -33 23.5 -56.5t56.5 -23.5h238v-146q0 -30 -21 -51t-51 -21zM952 352q0 -17 -12.5 -29.5t-29.5 -12.5h-261q-18 0 -30 12.5t-12 29.5v89q0 17 12 29.5t30 12.5h261q17 0 29.5 -12.5t12.5 -29.5v-89zM696 395zM660 395
q0 15 10.5 25.5t25.5 10.5t25.5 -10.5t10.5 -25.5t-10.5 -25.5t-25.5 -10.5t-25.5 10.5t-10.5 25.5z" />
    <glyph glyph-name="bangzhuzhongxin1" unicode="&#xe8eb;" 
d="M512 832q-91 0 -174 -35.5t-143 -95.5t-95.5 -143t-35.5 -174t35.5 -173.5t95.5 -142.5t143 -95.5t174 -35.5t173.5 35.5t142.5 95.5t95.5 142.5t35.5 173.5t-35.5 174t-95.5 143t-142.5 95.5t-173.5 35.5v0zM512 -22q-110 0 -203.5 54.5t-148 148t-54.5 203.5
t54.5 203.5t148 148t203.5 54.5t203 -54.5t147.5 -148t54.5 -203.5t-54.5 -203.5t-148 -148t-202.5 -54.5v0zM519 636q-81 0 -128 -47.5t-47 -130.5v0q0 -13 9.5 -22t22.5 -9t22.5 9t10.5 22v0v2v0v0q1 122 107 122q41 0 68 -23.5t27 -61.5q0 -43 -50 -88l-25 -22
q-36 -32 -46 -56t-10 -77v0v-3q0 -13 8.5 -21.5t21.5 -8.5q12 0 20.5 8t9.5 20v0l1 11q0 55 52 97q86 71 86 136q0 64 -44 103.5t-116 39.5v0zM512 187q-17 0 -29 -12t-12 -29t12 -29t29 -12t29 12t12 29t-12 29t-29 12v0z" />
    <glyph glyph-name="mg-checkbox" unicode="&#xe62d;" horiz-adv-x="1074" 
d="M536.5 817q-90.5 0 -173 -35t-142 -94.5t-94.5 -142t-35 -173t35 -172.5t94.5 -141.5t142 -95t173 -35.5t173 35.5t142 95t94.5 141.5t35 172.5t-35 173t-94.5 142t-142 94.5t-173 35zM766 486l-273 -273q-9 -10 -23 -10t-24 10l-139 139q-10 10 -10 24t10 24q9 9 23 9
t24 -9l116 -116l249 249q10 9 24 9t23 -9q10 -10 10 -24t-10 -23z" />
    <glyph glyph-name="gouwuche2" unicode="&#xe63c;" horiz-adv-x="1190" 
d="M676.5 82q-24.5 0 -42 -17.5t-17.5 -42.5t17.5 -42.5t42 -17.5t42 17.5t17.5 42.5t-17.5 42.5t-42 17.5zM93 598l125 -335q8 -22 28 -36t44 -14h494l-7 -37q-2 -12 -11.5 -20t-21.5 -8h-496q-6 0 -10.5 -4.5t-4.5 -10.5t4.5 -10t10.5 -4h496q23 0 41 14.5t22 37.5
l101 581q2 10 10.5 17t18.5 7h119q6 0 10.5 4.5t4.5 10.5t-4.5 10.5t-10.5 4.5h-118q-22 0 -38.5 -13.5t-20.5 -35.5l-16 -96h-723q-26 0 -40.5 -19t-6.5 -44v0zM349.5 82q-24.5 0 -42 -17.5t-17.5 -42.5t17.5 -42.5t42 -17.5t42 17.5t17.5 42.5t-17.5 42.5t-42 17.5z" />
    <glyph glyph-name="daifahuo2" unicode="&#xe608;" 
d="M908 803h-792q-48 0 -82 -34t-34 -82v-606q0 -48 34 -82t82 -34h792q48 0 82 34t34 82v606q0 48 -34 82t-82 34zM414 756h196v-420l-74 39q-11 6 -24 6t-24 -6l-74 -39v420zM47 687q0 28 20.5 48.5t48.5 20.5h252v-189h-321v120zM977 81q0 -28 -20.5 -48.5t-48.5 -20.5
h-792q-28 0 -48.5 20.5t-20.5 48.5v439h321v-223q0 -10 7 -16.5t16 -6.5q6 0 11 3l108 57q1 1 2 1t2 -1l108 -57q5 -3 11 -3q9 0 16 6.5t7 16.5v459h252q28 0 48.5 -20.5t20.5 -48.5v-606zM254 408h-93q-10 0 -17 -7t-7 -16.5t7 -16.5t17 -7h93q9 0 16 7t7 16.5t-7 16.5
t-16 7z" />
    <glyph glyph-name="daifukuan3" unicode="&#xe95d;" 
d="M871 247h-260q-37 0 -63 26.5t-26 63.5v94q0 37 26 63.5t63 26.5h260q37 0 63.5 -26.5t26.5 -63.5v-94q0 -37 -26.5 -63.5t-63.5 -26.5zM611 485q-22 0 -37.5 -16t-15.5 -38v-94q0 -22 15.5 -38t37.5 -16h260q22 0 38 16t16 38v94q0 22 -16 38t-38 16h-260zM652 388z
M615 388.5q0 -15.5 10.5 -26.5t26 -11t26 11t10.5 26.5t-10.5 26t-26 10.5t-26 -10.5t-10.5 -26zM781 -2h-609q-44 0 -75.5 31.5t-31.5 75.5v566q0 45 31.5 76.5t75.5 31.5h609q44 0 75.5 -31.5t31.5 -76.5v-103q0 -7 -5 -12.5t-12.5 -5.5t-12.5 5.5t-5 12.5v103
q0 30 -21 51t-51 21h-609q-30 0 -51 -21t-21 -51v-566q0 -29 21 -50t51 -21h609q30 0 51 21t21 50v95q0 7 5 12.5t12.5 5.5t12.5 -5.5t5 -12.5v-95q0 -44 -31.5 -75.5t-75.5 -31.5v0z" />
    <glyph glyph-name="zuji1" unicode="&#xe636;" 
d="M665 680q-64 29 -150 31q-68 1 -121 -29q-75 -41 -85 -121q-13 -108 51 -185q23 -28 38 -48q38 -53 22 -119q-9 -38 -31 -79q-14 -27 -20 -56q-7 -38 1 -75q12 -51 45 -85q46 -46 111 -40q89 9 139 77q29 39 50 89q52 117 85 257q21 85 14 163q0 3 -1 10t-2 13t-2 11
q-25 132 -144 186zM776 453q7 -72 -17 -172q-27 -113 -66 -202l-4.5 -11.5t-9 -21t-13.5 -26t-18 -29.5t-23.5 -28t-30 -25.5t-36 -18t-42.5 -8.5q-41 -2 -76.5 39t-32.5 82q2 39 10.5 67.5t21 52.5t17.5 38q8 22 6.5 60.5t-15.5 69.5q-7 16 -25.5 41.5t-35 47t-29 52.5
t-11.5 60q1 21 4 36.5t9.5 33.5t21 32t36.5 24q40 18 90 20t85 -5.5t60 -19.5q56 -25 86 -70.5t38 -118.5zM278 829q-37 15 -70 -0.5t-43 -54.5q-12 -44 12 -88t68 -58q36 -11 66.5 6.5t38.5 54.5q8 33 -6 70q-20 50 -66 70zM314 707q-4 -23 -22 -34t-40 -5q-26 7 -41.5 33
t-9.5 52q6 23 25 33.5t42 1.5q28 -11 41 -40q9 -22 5 -41zM507 872q-19 22 -45.5 22t-45.5 -22q-24 -27 -22 -67.5t29 -65.5q19 -17 43 -16t42 20q28 31 23 76q-5 33 -24 53zM500 814q3 -25 -12 -42q-10 -11 -23.5 -11.5t-23.5 9.5q-15 13 -16.5 36t12.5 37q10 12 24.5 12
t25.5 -12q11 -10 13 -29zM716 826q-11 22 -32.5 28t-42.5 -7q-27 -17 -34.5 -51.5t9.5 -60.5q12 -19 32 -23.5t39 6.5q30 19 36 58q4 29 -7 50zM696 778q-3 -20 -19 -30q-10 -6 -20 -3.5t-17 12.5q-8 14 -4 32t17 26q11 7 22.5 4t17.5 -15q5 -11 3 -26zM858 717
q-10 21 -29 27.5t-39 -4.5q-25 -14 -33.5 -44.5t5.5 -55.5q10 -18 28 -23t36 5q28 15 36 50q4 26 -4 45zM833 677q-4 -16 -17 -23q-18 -10 -29 9q-6 11 -2 25t15 20q9 5 18 2t13 -12t2 -21z" />
    <glyph glyph-name="dianhua1" unicode="&#xe61a;" horiz-adv-x="1035" 
d="M753 -128q-80 0 -211 81q-125 77 -244 193v0l-24 24q-116 119 -193 244q-81 131 -81 211q0 78 72 175q14 18 30 36t45 39t52 21q30 0 72 -44q31 -32 67 -83q34 -49 57 -92q27 -51 27 -76q0 -33 -34 -56q-15 -10 -49 -25q-30 -13 -37 -19q6 -24 42 -77q43 -63 93 -115
q52 -50 115 -93q53 -36 77 -42q6 7 19 37q15 34 25 49q23 34 56 34q25 0 76 -27q43 -23 92 -57q51 -36 83 -67q44 -42 44 -72q0 -23 -21 -52t-39 -45t-36 -30q-97 -72 -175 -72v0zM341 189q114 -111 232 -185q117 -72 180 -72q57 0 135 59q34 24 56 50q16 18 19 29
q-5 11 -32 36t-74 58q-43 30 -81 50q-33 17 -47 19q-4 -2 -9.5 -11.5t-16.5 -34.5q-13 -31 -21 -43q-20 -31 -49 -31h-1q-38 1 -114 53q-68 46 -123 100l-1 1q-54 55 -100 123q-52 76 -53 114q-1 29 30 50q13 8 44 21q25 11 34.5 16.5t11.5 9.5q-2 14 -19 47q-20 38 -50 81
q-33 47 -58 74t-36 32q-11 -3 -29 -19q-26 -22 -50 -56q-59 -78 -59 -135q0 -63 72 -180q74 -118 185 -232l24 -24v0zM341 189zM700 406q-8 0 -14 5t-7 13q-9 48 -51 75q-42 28 -94 19q-9 -2 -16.5 3.5t-9 14.5t4 16.5t14.5 9.5q69 12 126 -26t69 -104q2 -9 -3.5 -16.5
t-14.5 -9.5h-4zM834 463q-8 0 -14.5 5t-7.5 13q-16 93 -97 146q-82 54 -181 36q-9 -1 -16.5 4t-9 14t4 16.5t14.5 9.5q116 20 212 -43q97 -64 117 -175q1 -9 -4 -16.5t-14 -9.5h-4zM1012 479q-8 0 -14.5 5.5t-7.5 13.5q-13 76 -56 140.5t-109 108.5q-67 44 -146.5 60
t-160.5 1q-9 -1 -16.5 4t-9 14t3.5 16.5t14 9.5q90 16 177.5 -2t161.5 -66q74 -50 122 -121.5t63 -157.5q1 -9 -4 -16.5t-14 -8.5q-2 -1 -4 -1z" />
    <glyph glyph-name="dingdan2" unicode="&#xe69a;" 
d="M723 414h-422q-13 0 -21.5 -8t-8.5 -22t8.5 -22t21.5 -8h422q13 0 21.5 8t8.5 22t-8.5 22t-21.5 8zM392 865.5q0 -13.5 8 -21.5t22 -8h180q14 0 22 8t8 21.5t-8 22t-22 8.5h-180q-14 0 -22 -8.5t-8 -22zM301 173q-13 0 -21.5 -8t-8.5 -21.5t8.5 -22t21.5 -8.5h422
q13 0 21.5 8.5t8.5 22t-8.5 21.5t-21.5 8h-422zM813 896h-60q-3 0 -8 -1t-13.5 -8.5t-8.5 -21t7.5 -21t14.5 -7.5l8 -1h60q27 0 43.5 -16.5t16.5 -43.5v-784q0 -26 -18 -43t-42 -17h-602q-27 0 -43.5 16.5t-16.5 43.5v784q0 26 18 43t42 17h60q3 0 8 0.5t13.5 8t8.5 21
t-7.5 21t-14.5 8.5l-8 1h-60q-50 0 -85.5 -35.5t-35.5 -84.5v-784q0 -49 35.5 -84.5t85.5 -35.5h602q50 0 85.5 35.5t35.5 84.5v784q0 49 -35.5 84.5t-85.5 35.5zM723 655h-422q-13 0 -21.5 -8.5t-8.5 -22t8.5 -21.5t21.5 -8h422q13 0 21.5 8t8.5 21.5t-8.5 22t-21.5 8.5z
" />
    <glyph glyph-name="gouwuche3" unicode="&#xe602;" 
d="M858 138h-455q-38 0 -67 23t-38 60l-138 518q-2 10 -10.5 16.5t-18.5 6.5h-61q-14 0 -26 12.5t-12 28.5t11.5 27.5t26.5 11.5h58q38 0 67 -23.5t39 -60.5l134 -518q2 -10 10.5 -16t18.5 -6h454q16 0 27.5 -12t11.5 -27q0 -16 -8.5 -28.5t-23.5 -12.5zM883 298h-569
l-112 387h742q24 0 38.5 -18t9.5 -40l-61 -291q-5 -17 -18 -27.5t-30 -10.5zM778 -74q-34 0 -57 23.5t-23 57t23 56.5t56.5 23t57 -23t23.5 -57q0 -33 -24.5 -56.5t-55.5 -23.5zM778 6zM457.5 -74q-33.5 0 -56.5 23.5t-23 57t23 56.5t56.5 23t57 -23t23.5 -56.5t-23.5 -57
t-57 -23.5zM458 6z" />
    <glyph glyph-name="cha" unicode="&#xe600;" 
d="M822 27q-20 0 -35 14l-274 275l-275 -275q-14 -14 -35 -14t-34 14q-15 15 -15 35.5t15 34.5l274 275l-274 274q-15 15 -15 35.5t14.5 35t34.5 14.5q21 0 35 -15l275 -274l274 274q15 15 35.5 15t35 -14.5t14.5 -35t-14 -34.5l-275 -275l275 -274q14 -15 14 -35t-14 -35
t-36 -15z" />
    <glyph glyph-name="bankexing" unicode="&#xe605;" 
d="M956 509q-5 17 -19 28.5t-33 13.5l-235 35l-102 212q-8 16 -24 26t-35 10t-35 -10t-24 -26l-102 -212l-235 -35q-18 -2 -32 -13.5t-21 -28.5q-12 -37 16 -65l172 -171l-40 -238q-6 -40 27 -62q17 -12 37 -12q17 0 32 8l205 110l205 -110q14 -8 31 -8q21 0 38 12
q33 22 26 62l-39 238l172 171q29 29 15 65z" />
    <glyph glyph-name="wodejifen1" unicode="&#xe698;" 
d="M404 573q37 0 64 1t64 4t65 10.5t55.5 18.5t46.5 30t29 43v-161h53v215q0 44 -54.5 81.5t-141.5 59t-181 21.5q-95 0 -181 -20.5t-141 -58t-55 -83.5v-593q0 -43 31.5 -75.5t86.5 -50.5t119.5 -26.5t139.5 -8.5v54q-141 0 -232 34t-91 73v216q33 -51 128 -79.5t195 -28.5
v54q-71 0 -123.5 8t-90 26t-57.5 32t-52 42v269q29 -51 125 -79t198 -28zM404 842q141 0 232.5 -34t91.5 -73.5t-91.5 -73.5t-232.5 -34t-232 34t-91 73.5t91 73.5t232 34zM727.5 465q-128.5 0 -199 -29t-70.5 -79v-377q0 -50 73 -79t201 -29q127 0 195.5 29t69.5 79v377
q0 50 -70.5 79t-199 29zM732.5 418q59.5 0 110.5 -11.5t75.5 -25.5t24.5 -24t-26 -22t-78 -22t-111.5 -10t-111.5 10t-78 22t-26 22t27 24t80.5 25.5t113 11.5zM727.5 -74q-59.5 0 -111.5 9.5t-78 22t-26 22.5v161q42 -22 105 -37.5t110.5 -15.5t110.5 15.5t105 37.5v-161
q0 -10 -26 -22.5t-78 -22t-111.5 -9.5zM727.5 141q-59.5 0 -111.5 10t-78 22t-26 22v108q42 -22 105 -38t110.5 -16t110.5 16t105 38v-108q0 -10 -26 -22t-78 -22t-111.5 -10z" />
  </font>
</defs>
</svg>
